<?xml version="1.0" encoding="utf-8" standalone="no"?>
<!DOCTYPE svg PUBLIC "-//W3C//DTD SVG 1.1//EN"
  "http://www.w3.org/Graphics/SVG/1.1/DTD/svg11.dtd">
<svg xmlns:xlink="http://www.w3.org/1999/xlink" width="720pt" height="1440pt" viewBox="0 0 720 1440" xmlns="http://www.w3.org/2000/svg" version="1.1">
 <metadata>
  <rdf:RDF xmlns:dc="http://purl.org/dc/elements/1.1/" xmlns:cc="http://creativecommons.org/ns#" xmlns:rdf="http://www.w3.org/1999/02/22-rdf-syntax-ns#">
   <cc:Work>
    <dc:type rdf:resource="http://purl.org/dc/dcmitype/StillImage"/>
    <dc:date>2022-07-14T09:54:06.514113</dc:date>
    <dc:format>image/svg+xml</dc:format>
    <dc:creator>
     <cc:Agent>
      <dc:title>Matplotlib v3.5.2, https://matplotlib.org/</dc:title>
     </cc:Agent>
    </dc:creator>
   </cc:Work>
  </rdf:RDF>
 </metadata>
 <defs>
  <style type="text/css">*{stroke-linejoin: round; stroke-linecap: butt}</style>
 </defs>
 <g id="figure_1">
  <g id="patch_1">
   <path d="M 0 1440 
L 720 1440 
L 720 0 
L 0 0 
z
" style="fill: #ffffff"/>
  </g>
  <g id="axes_1">
   <g id="text_1">
    <!-- Type 1 -->
    <g transform="translate(152.555074 166.8)scale(0.12 -0.12)">
     <defs>
      <path id="DejaVuSans-54" d="M -19 4666 
L 3928 4666 
L 3928 4134 
L 2272 4134 
L 2272 0 
L 1638 0 
L 1638 4134 
L -19 4134 
L -19 4666 
z
" transform="scale(0.015625)"/>
      <path id="DejaVuSans-79" d="M 2059 -325 
Q 1816 -950 1584 -1140 
Q 1353 -1331 966 -1331 
L 506 -1331 
L 506 -850 
L 844 -850 
Q 1081 -850 1212 -737 
Q 1344 -625 1503 -206 
L 1606 56 
L 191 3500 
L 800 3500 
L 1894 763 
L 2988 3500 
L 3597 3500 
L 2059 -325 
z
" transform="scale(0.015625)"/>
      <path id="DejaVuSans-70" d="M 1159 525 
L 1159 -1331 
L 581 -1331 
L 581 3500 
L 1159 3500 
L 1159 2969 
Q 1341 3281 1617 3432 
Q 1894 3584 2278 3584 
Q 2916 3584 3314 3078 
Q 3713 2572 3713 1747 
Q 3713 922 3314 415 
Q 2916 -91 2278 -91 
Q 1894 -91 1617 61 
Q 1341 213 1159 525 
z
M 3116 1747 
Q 3116 2381 2855 2742 
Q 2594 3103 2138 3103 
Q 1681 3103 1420 2742 
Q 1159 2381 1159 1747 
Q 1159 1113 1420 752 
Q 1681 391 2138 391 
Q 2594 391 2855 752 
Q 3116 1113 3116 1747 
z
" transform="scale(0.015625)"/>
      <path id="DejaVuSans-65" d="M 3597 1894 
L 3597 1613 
L 953 1613 
Q 991 1019 1311 708 
Q 1631 397 2203 397 
Q 2534 397 2845 478 
Q 3156 559 3463 722 
L 3463 178 
Q 3153 47 2828 -22 
Q 2503 -91 2169 -91 
Q 1331 -91 842 396 
Q 353 884 353 1716 
Q 353 2575 817 3079 
Q 1281 3584 2069 3584 
Q 2775 3584 3186 3129 
Q 3597 2675 3597 1894 
z
M 3022 2063 
Q 3016 2534 2758 2815 
Q 2500 3097 2075 3097 
Q 1594 3097 1305 2825 
Q 1016 2553 972 2059 
L 3022 2063 
z
" transform="scale(0.015625)"/>
      <path id="DejaVuSans-20" transform="scale(0.015625)"/>
      <path id="DejaVuSans-31" d="M 794 531 
L 1825 531 
L 1825 4091 
L 703 3866 
L 703 4441 
L 1819 4666 
L 2450 4666 
L 2450 531 
L 3481 531 
L 3481 0 
L 794 0 
L 794 531 
z
" transform="scale(0.015625)"/>
     </defs>
     <use xlink:href="#DejaVuSans-54"/>
     <use xlink:href="#DejaVuSans-79" x="45.458984"/>
     <use xlink:href="#DejaVuSans-70" x="104.638672"/>
     <use xlink:href="#DejaVuSans-65" x="168.115234"/>
     <use xlink:href="#DejaVuSans-20" x="229.638672"/>
     <use xlink:href="#DejaVuSans-31" x="261.425781"/>
    </g>
   </g>
  </g>
  <g id="axes_2">
   <g id="Quiver_1">
    <path d="M 126.327615 378.30478 
L 124.856389 393.417896 
L 126.48778 392.791501 
L 123.397069 400.342696 
L 121.820766 392.337178 
L 123.300717 393.266455 
L 124.771944 378.153339 
L 126.327615 378.30478 
" clip-path="url(#pbc477b2af2)" style="fill: #cc403a"/>
    <path d="M 104.015882 348.392675 
L 108.18137 361.973755 
L 109.446524 360.768271 
L 109.496678 368.927348 
L 104.963571 362.143249 
L 106.687052 362.432081 
L 102.521564 348.851001 
L 104.015882 348.392675 
" clip-path="url(#pbc477b2af2)" style="fill: #d95847"/>
    <path d="M 156.002684 335.621059 
L 160.326434 351.040551 
L 161.620407 349.866055 
L 161.47298 358.023954 
L 157.105475 351.132078 
L 158.821456 351.462559 
L 154.497707 336.043067 
L 156.002684 335.621059 
" clip-path="url(#pbc477b2af2)" style="fill: #c0282f"/>
    <path d="M 137.500696 355.516133 
L 139.602963 370.926709 
L 141.046011 369.941102 
L 139.779322 378.001409 
L 136.399967 370.574902 
L 138.054282 371.137976 
L 135.952015 355.727399 
L 137.500696 355.516133 
" clip-path="url(#pbc477b2af2)" style="fill: #c73635"/>
    <path d="M 99.312392 380.15008 
L 97.054606 393.643338 
L 98.725174 393.130492 
L 95.123034 400.451533 
L 94.100395 392.356641 
L 95.513013 393.385388 
L 97.770799 379.89213 
L 99.312392 380.15008 
" clip-path="url(#pbc477b2af2)" style="fill: #df634e"/>
    <path d="M 139.884958 367.016961 
L 140.247737 382.604774 
L 141.792155 381.787106 
L 139.630086 389.654667 
L 137.104349 381.896206 
L 138.685135 382.641141 
L 138.322356 367.053328 
L 139.884958 367.016961 
" clip-path="url(#pbc477b2af2)" style="fill: #c73635"/>
    <path d="M 165.339226 325.477517 
L 170.524658 340.805116 
L 171.754803 339.563926 
L 172.038387 347.718227 
L 167.313027 341.066609 
L 169.044066 341.30601 
L 163.858635 325.978411 
L 165.339226 325.477517 
" clip-path="url(#pbc477b2af2)" style="fill: #bd1f2d"/>
    <path d="M 94.200649 329.84418 
L 102.099584 341.578926 
L 102.959823 340.057809 
L 105.378855 347.850198 
L 99.069908 342.676203 
L 100.802945 342.451724 
L 92.904011 330.716978 
L 94.200649 329.84418 
" clip-path="url(#pbc477b2af2)" style="fill: #d95847"/>
   </g>
  </g>
  <g id="axes_3">
   <g id="Quiver_2">
    <path d="M 199.138435 341.801979 
L 208.110139 319.455035 
L 206.368477 319.597947 
L 211.455893 313.218978 
L 210.71996 321.344952 
L 209.560633 320.03737 
L 200.588929 342.384314 
L 199.138435 341.801979 
" clip-path="url(#p421e14b85d)" style="fill: #b40426"/>
    <path d="M 225.387388 365.048921 
L 233.356911 342.432598 
L 231.622999 342.650218 
L 236.431613 336.058535 
L 236.045531 344.208626 
L 234.831089 342.952068 
L 226.861565 365.568391 
L 225.387388 365.048921 
" clip-path="url(#p421e14b85d)" style="fill: #b50927"/>
    <path d="M 186.175339 394.007731 
L 191.097361 370.442855 
L 189.407568 370.888284 
L 193.300449 363.717613 
L 193.997587 371.847007 
L 192.627368 370.762429 
L 187.705346 394.327305 
L 186.175339 394.007731 
" clip-path="url(#p421e14b85d)" style="fill: #b40426"/>
    <path d="M 227.309687 328.571062 
L 238.000684 307.059361 
L 236.253174 307.063581 
L 241.830859 301.108543 
L 240.452262 309.150465 
L 239.40038 307.754989 
L 228.709383 329.26669 
L 227.309687 328.571062 
" clip-path="url(#p421e14b85d)" style="fill: #b50927"/>
    <path d="M 249.858257 345.906542 
L 260.047065 324.266722 
L 258.300036 324.307963 
L 263.750307 318.236094 
L 262.542394 326.305418 
L 261.461184 324.93254 
L 251.272377 346.572361 
L 249.858257 345.906542 
" clip-path="url(#p421e14b85d)" style="fill: #b50927"/>
    <path d="M 178.812738 311.246355 
L 189.171224 289.429631 
L 187.424071 289.465218 
L 192.893963 283.411019 
L 191.659943 291.476392 
L 190.583181 290.100022 
L 180.224695 311.916746 
L 178.812738 311.246355 
" clip-path="url(#p421e14b85d)" style="fill: #b40426"/>
   </g>
  </g>
  <g id="axes_4">
   <g id="text_2">
    <!-- Type 2 -->
    <g transform="translate(349.49625 166.8)scale(0.12 -0.12)">
     <defs>
      <path id="DejaVuSans-32" d="M 1228 531 
L 3431 531 
L 3431 0 
L 469 0 
L 469 531 
Q 828 903 1448 1529 
Q 2069 2156 2228 2338 
Q 2531 2678 2651 2914 
Q 2772 3150 2772 3378 
Q 2772 3750 2511 3984 
Q 2250 4219 1831 4219 
Q 1534 4219 1204 4116 
Q 875 4013 500 3803 
L 500 4441 
Q 881 4594 1212 4672 
Q 1544 4750 1819 4750 
Q 2544 4750 2975 4387 
Q 3406 4025 3406 3419 
Q 3406 3131 3298 2873 
Q 3191 2616 2906 2266 
Q 2828 2175 2409 1742 
Q 1991 1309 1228 531 
z
" transform="scale(0.015625)"/>
     </defs>
     <use xlink:href="#DejaVuSans-54"/>
     <use xlink:href="#DejaVuSans-79" x="45.458984"/>
     <use xlink:href="#DejaVuSans-70" x="104.638672"/>
     <use xlink:href="#DejaVuSans-65" x="168.115234"/>
     <use xlink:href="#DejaVuSans-20" x="229.638672"/>
     <use xlink:href="#DejaVuSans-32" x="261.425781"/>
    </g>
   </g>
  </g>
  <g id="axes_5">
   <g id="Quiver_3">
    <path d="M 294.457009 346.67463 
L 309.731626 357.995163 
L 310.034428 356.274082 
L 314.917137 362.81107 
L 307.242405 360.041314 
L 308.800952 359.250907 
L 293.526335 347.930374 
L 294.457009 346.67463 
" clip-path="url(#p93385e4114)" style="fill: #c53334"/>
    <path d="M 334.043321 324.487603 
L 348.458406 337.961412 
L 348.954783 336.285876 
L 353.063199 343.335271 
L 345.752836 339.71151 
L 347.391091 339.10329 
L 332.976006 325.629481 
L 334.043321 324.487603 
" clip-path="url(#p93385e4114)" style="fill: #bd1f2d"/>
    <path d="M 291.141547 397.637925 
L 300.882549 412.089356 
L 301.741818 410.567691 
L 304.165821 418.358536 
L 297.853573 413.188566 
L 299.586468 412.962981 
L 289.845466 398.51155 
L 291.141547 397.637925 
" clip-path="url(#p93385e4114)" style="fill: #d85646"/>
    <path d="M 322.802441 352.425183 
L 335.826776 366.713232 
L 336.455423 365.082707 
L 339.987539 372.437787 
L 332.99004 368.241592 
L 334.671648 367.766194 
L 321.647314 353.478144 
L 322.802441 352.425183 
" clip-path="url(#p93385e4114)" style="fill: #c12b30"/>
    <path d="M 304.892238 307.005001 
L 321.755767 317.169373 
L 321.893305 315.427278 
L 327.376305 321.469609 
L 319.472701 319.44326 
L 320.948899 318.508033 
L 304.08537 308.343662 
L 304.892238 307.005001 
" clip-path="url(#p93385e4114)" style="fill: #bd1f2d"/>
    <path d="M 326.687027 374.65645 
L 337.26703 390.573821 
L 338.136125 389.057746 
L 340.509674 396.86411 
L 334.231006 391.653412 
L 335.965324 391.439043 
L 325.385321 375.521671 
L 326.687027 374.65645 
" clip-path="url(#p93385e4114)" style="fill: #c43032"/>
    <path d="M 362.126521 320.857714 
L 375.308599 335.821073 
L 375.964821 334.201449 
L 379.371632 341.615401 
L 372.446339 337.30108 
L 374.135771 336.854284 
L 360.953693 321.890925 
L 362.126521 320.857714 
" clip-path="url(#p93385e4114)" style="fill: #ba162b"/>
   </g>
  </g>
  <g id="axes_6">
   <g id="Quiver_4">
    <path d="M 408.207741 335.609484 
L 407.263446 315.089558 
L 405.738 315.942097 
L 407.720799 308.027454 
L 410.422118 315.726541 
L 408.824819 315.017706 
L 409.769114 335.537632 
L 408.207741 335.609484 
" clip-path="url(#pf7af5fdde4)" style="fill: #ba162b"/>
    <path d="M 386.042263 401.815713 
L 378.910537 382.295167 
L 377.710607 383.565591 
L 377.230941 375.420471 
L 382.114948 381.956489 
L 380.378651 381.758799 
L 387.510377 401.279345 
L 386.042263 401.815713 
" clip-path="url(#pf7af5fdde4)" style="fill: #b70d28"/>
    <path d="M 435.037368 373.629107 
L 429.212316 354.149977 
L 427.938722 355.346541 
L 427.945905 347.187313 
L 432.431226 354.0031 
L 430.709818 353.702163 
L 436.534869 373.181293 
L 435.037368 373.629107 
" clip-path="url(#pf7af5fdde4)" style="fill: #bd1f2d"/>
    <path d="M 428.119496 320.956452 
L 428.906767 300.637181 
L 427.314657 301.357593 
L 429.960007 293.639098 
L 432.000217 301.539136 
L 430.46862 300.697695 
L 429.681349 321.016966 
L 428.119496 320.956452 
" clip-path="url(#pf7af5fdde4)" style="fill: #bd1f2d"/>
    <path d="M 446.734971 304.07698 
L 449.937681 284.239333 
L 448.270076 284.761737 
L 451.830236 277.42019 
L 452.899211 285.509093 
L 451.480726 284.488452 
L 448.278016 304.326098 
L 446.734971 304.07698 
" clip-path="url(#pf7af5fdde4)" style="fill: #c0282f"/>
    <path d="M 420.036578 355.826531 
L 416.647602 335.659102 
L 415.2357 336.688831 
L 416.252709 328.59323 
L 419.85994 335.911764 
L 418.189016 335.400079 
L 421.577991 355.567509 
L 420.036578 355.826531 
" clip-path="url(#pf7af5fdde4)" style="fill: #bb1b2c"/>
    <path d="M 418.715012 346.709365 
L 416.407187 326.389412 
L 414.942339 327.342318 
L 416.389972 319.312535 
L 419.601461 326.813161 
L 417.960228 326.213026 
L 420.268053 346.53298 
L 418.715012 346.709365 
" clip-path="url(#pf7af5fdde4)" style="fill: #bb1b2c"/>
    <path d="M 420.508017 378.29914 
L 414.601253 358.672538 
L 413.329764 359.87134 
L 413.322602 351.712112 
L 417.819899 358.520002 
L 416.097965 358.222092 
L 422.004729 377.848694 
L 420.508017 378.29914 
" clip-path="url(#pf7af5fdde4)" style="fill: #bb1b2c"/>
    <path d="M 375.700238 379.05558 
L 370.815385 358.837615 
L 369.479616 359.96435 
L 369.923182 351.817184 
L 374.037543 358.863111 
L 372.334694 358.470536 
L 377.219548 378.6885 
L 375.700238 379.05558 
" clip-path="url(#pf7af5fdde4)" style="fill: #b70d28"/>
   </g>
  </g>
  <g id="axes_7">
   <g id="text_3">
    <!-- Type 3 -->
    <g transform="translate(546.437426 166.8)scale(0.12 -0.12)">
     <defs>
      <path id="DejaVuSans-33" d="M 2597 2516 
Q 3050 2419 3304 2112 
Q 3559 1806 3559 1356 
Q 3559 666 3084 287 
Q 2609 -91 1734 -91 
Q 1441 -91 1130 -33 
Q 819 25 488 141 
L 488 750 
Q 750 597 1062 519 
Q 1375 441 1716 441 
Q 2309 441 2620 675 
Q 2931 909 2931 1356 
Q 2931 1769 2642 2001 
Q 2353 2234 1838 2234 
L 1294 2234 
L 1294 2753 
L 1863 2753 
Q 2328 2753 2575 2939 
Q 2822 3125 2822 3475 
Q 2822 3834 2567 4026 
Q 2313 4219 1838 4219 
Q 1578 4219 1281 4162 
Q 984 4106 628 3988 
L 628 4550 
Q 988 4650 1302 4700 
Q 1616 4750 1894 4750 
Q 2613 4750 3031 4423 
Q 3450 4097 3450 3541 
Q 3450 3153 3228 2886 
Q 3006 2619 2597 2516 
z
" transform="scale(0.015625)"/>
     </defs>
     <use xlink:href="#DejaVuSans-54"/>
     <use xlink:href="#DejaVuSans-79" x="45.458984"/>
     <use xlink:href="#DejaVuSans-70" x="104.638672"/>
     <use xlink:href="#DejaVuSans-65" x="168.115234"/>
     <use xlink:href="#DejaVuSans-20" x="229.638672"/>
     <use xlink:href="#DejaVuSans-33" x="261.425781"/>
    </g>
   </g>
  </g>
  <g id="axes_8">
   <g id="Quiver_5">
    <path d="M 523.696399 367.870838 
L 511.733244 375.17914 
L 513.214992 376.105548 
L 505.32361 378.178985 
L 510.770486 372.10407 
L 510.918408 373.845314 
L 522.881564 366.537012 
L 523.696399 367.870838 
" clip-path="url(#pbc0dbd3b85)" style="fill: #c0282f"/>
    <path d="M 545.96158 324.694406 
L 538.456491 336.148806 
L 540.192184 336.351731 
L 533.94802 341.603728 
L 536.27003 333.781879 
L 537.149106 335.292189 
L 544.654196 323.837789 
L 545.96158 324.694406 
" clip-path="url(#pbc0dbd3b85)" style="fill: #c53334"/>
    <path d="M 547.319972 382.109411 
L 535.830193 390.679649 
L 537.391159 391.465267 
L 529.724967 394.258572 
L 534.587583 387.706625 
L 534.895668 389.426768 
L 546.385446 380.85653 
L 547.319972 382.109411 
" clip-path="url(#pbc0dbd3b85)" style="fill: #bb1b2c"/>
    <path d="M 513.003033 345.835046 
L 501.711836 353.153643 
L 503.217779 354.040178 
L 495.384542 356.323475 
L 500.667356 350.105362 
L 500.861695 351.842038 
L 512.152892 344.523441 
L 513.003033 345.835046 
" clip-path="url(#pbc0dbd3b85)" style="fill: #ca3b37"/>
    <path d="M 487.657906 348.058934 
L 475.066128 351.811871 
L 476.26153 353.086557 
L 468.102312 353.071927 
L 474.92219 348.592828 
L 474.619682 350.313961 
L 487.21146 346.561025 
L 487.657906 348.058934 
" clip-path="url(#pbc0dbd3b85)" style="fill: #cf453c"/>
    <path d="M 532.377524 365.808792 
L 520.941214 374.001387 
L 522.486772 374.816901 
L 514.768242 377.462152 
L 519.756051 371.004999 
L 520.030974 372.730753 
L 531.467284 364.538158 
L 532.377524 365.808792 
" clip-path="url(#pbc0dbd3b85)" style="fill: #c0282f"/>
    <path d="M 559.055282 358.59175 
L 549.396437 369.045214 
L 551.074799 369.531947 
L 544.049146 373.680832 
L 547.63081 366.349752 
L 548.24844 367.984482 
L 557.907285 357.531018 
L 559.055282 358.59175 
" clip-path="url(#pbc0dbd3b85)" style="fill: #bd1f2d"/>
    <path d="M 551.888115 328.82422 
L 544.270145 340.40083 
L 546.005433 340.607191 
L 539.750882 345.846814 
L 542.088376 338.029578 
L 542.964459 339.541625 
L 550.582429 327.965016 
L 551.888115 328.82422 
" clip-path="url(#pbc0dbd3b85)" style="fill: #c32e31"/>
    <path d="M 497.847349 325.813071 
L 487.391262 332.170657 
L 488.871066 333.100167 
L 480.975357 335.157066 
L 486.43495 329.093577 
L 486.579224 330.835126 
L 497.03531 324.477541 
L 497.847349 325.813071 
" clip-path="url(#pbc0dbd3b85)" style="fill: #da5a49"/>
    <path d="M 511.813202 369.400273 
L 499.242779 375.432898 
L 500.623619 376.503922 
L 492.563451 377.771502 
L 498.594832 372.276458 
L 498.566517 374.023744 
L 511.136939 367.991118 
L 511.813202 369.400273 
" clip-path="url(#pbc0dbd3b85)" style="fill: #c12b30"/>
   </g>
  </g>
  <g id="axes_9">
   <g id="Quiver_6">
    <path d="M 610.994542 378.910268 
L 615.692543 365.856677 
L 613.957216 366.062718 
L 618.809723 359.503279 
L 618.369248 367.650612 
L 617.16322 366.385975 
L 612.465219 379.439566 
L 610.994542 378.910268 
" clip-path="url(#p84e4731336)" style="fill: #c43032"/>
    <path d="M 643.975335 331.339056 
L 655.057364 322.932024 
L 653.490069 322.159109 
L 661.133323 319.303636 
L 656.324078 325.894859 
L 656.002034 324.177274 
L 644.920005 332.584306 
L 643.975335 331.339056 
" clip-path="url(#p84e4731336)" style="fill: #c43032"/>
    <path d="M 602.776564 324.745397 
L 612.143696 313.802019 
L 610.44807 313.379337 
L 617.311192 308.966787 
L 614.010356 316.428525 
L 613.331125 314.818415 
L 603.963993 325.761792 
L 602.776564 324.745397 
" clip-path="url(#p84e4731336)" style="fill: #bb1b2c"/>
    <path d="M 614.219625 339.297321 
L 623.107765 328.244269 
L 621.399967 327.873816 
L 628.124462 323.252753 
L 625.054139 330.812261 
L 624.325822 329.223751 
L 615.437682 340.276802 
L 614.219625 339.297321 
" clip-path="url(#p84e4731336)" style="fill: #c0282f"/>
    <path d="M 623.283259 330.019613 
L 633.32873 320.018148 
L 631.672109 319.461897 
L 638.86455 315.609386 
L 634.9805 322.784845 
L 634.431527 321.125797 
L 624.386056 331.127262 
L 623.283259 330.019613 
" clip-path="url(#p84e4731336)" style="fill: #c0282f"/>
    <path d="M 606.060174 394.250491 
L 608.634967 380.601515 
L 606.95416 381.079738 
L 610.706785 373.83468 
L 611.561965 381.948971 
L 610.170902 380.89126 
L 607.596108 394.540236 
L 606.060174 394.250491 
" clip-path="url(#p84e4731336)" style="fill: #c43032"/>
    <path d="M 632.309056 349.440637 
L 641.322407 339.007083 
L 639.628722 338.576688 
L 646.511858 334.195422 
L 643.177092 341.642058 
L 642.505197 340.028873 
L 633.491846 350.462427 
L 632.309056 349.440637 
" clip-path="url(#p84e4731336)" style="fill: #c53334"/>
    <path d="M 611.913525 310.778427 
L 622.539362 301.007782 
L 620.906129 300.386204 
L 628.245838 296.822258 
L 624.079996 303.83787 
L 623.597318 302.158337 
L 612.97148 311.928982 
L 611.913525 310.778427 
" clip-path="url(#p84e4731336)" style="fill: #bb1b2c"/>
    <path d="M 602.553477 372.646672 
L 607.679899 359.538355 
L 605.939591 359.696904 
L 610.969511 353.272501 
L 610.306589 361.404757 
L 609.135565 360.10764 
L 604.009143 373.215956 
L 602.553477 372.646672 
" clip-path="url(#p84e4731336)" style="fill: #c12b30"/>
    <path d="M 572.76594 317.573843 
L 581.285078 305.692049 
L 579.559438 305.416414 
L 586.018645 300.431267 
L 583.370214 308.148706 
L 582.555337 306.602813 
L 574.036199 318.484607 
L 572.76594 317.573843 
" clip-path="url(#p84e4731336)" style="fill: #b70d28"/>
   </g>
  </g>
  <g id="axes_10">
   <g id="text_4">
    <!-- Type 4 -->
    <g transform="translate(152.555074 450.417391)scale(0.12 -0.12)">
     <defs>
      <path id="DejaVuSans-34" d="M 2419 4116 
L 825 1625 
L 2419 1625 
L 2419 4116 
z
M 2253 4666 
L 3047 4666 
L 3047 1625 
L 3713 1625 
L 3713 1100 
L 3047 1100 
L 3047 0 
L 2419 0 
L 2419 1100 
L 313 1100 
L 313 1709 
L 2253 4666 
z
" transform="scale(0.015625)"/>
     </defs>
     <use xlink:href="#DejaVuSans-54"/>
     <use xlink:href="#DejaVuSans-79" x="45.458984"/>
     <use xlink:href="#DejaVuSans-70" x="104.638672"/>
     <use xlink:href="#DejaVuSans-65" x="168.115234"/>
     <use xlink:href="#DejaVuSans-20" x="229.638672"/>
     <use xlink:href="#DejaVuSans-34" x="261.425781"/>
    </g>
   </g>
  </g>
  <g id="axes_11">
   <g id="Quiver_7">
    <path d="M 105.836175 645.932694 
L 108.706782 661.89916 
L 109.880119 661.022753 
L 109.105225 667.816599 
L 106.012423 661.718125 
L 107.417551 662.130951 
L 104.546943 646.164484 
L 105.836175 645.932694 
" clip-path="url(#p4dcd1329f7)" style="fill: #b70d28"/>
    <path d="M 149.896681 659.614482 
L 151.196262 675.944761 
L 152.450079 675.187958 
L 151.010992 681.872704 
L 148.532755 675.499703 
L 149.890487 676.048676 
L 148.590906 659.718397 
L 149.896681 659.614482 
" clip-path="url(#p4dcd1329f7)" style="fill: #b40426"/>
    <path d="M 153.708616 585.08184 
L 160.045359 600.244574 
L 161.001416 599.135177 
L 161.713983 605.935843 
L 157.375602 600.650461 
L 158.836754 600.749669 
L 152.500012 585.586935 
L 153.708616 585.08184 
" clip-path="url(#p4dcd1329f7)" style="fill: #b40426"/>
    <path d="M 99.885621 590.275995 
L 107.424148 604.706643 
L 108.281917 603.519613 
L 109.572961 610.234522 
L 104.798837 605.339163 
L 106.263122 605.31316 
L 98.724594 590.882512 
L 99.885621 590.275995 
" clip-path="url(#p4dcd1329f7)" style="fill: #b50927"/>
    <path d="M 147.24274 619.979918 
L 151.467251 635.819161 
L 152.564128 634.848765 
L 152.353469 641.683413 
L 148.767148 635.861463 
L 150.201591 636.156727 
L 145.977081 620.317484 
L 147.24274 619.979918 
" clip-path="url(#p4dcd1329f7)" style="fill: #b40426"/>
    <path d="M 159.500337 687.681159 
L 158.706416 704.067679 
L 160.046479 703.476885 
L 157.766977 709.923641 
L 156.121375 703.286715 
L 157.398048 704.004289 
L 158.191969 687.617769 
L 159.500337 687.681159 
" clip-path="url(#p4dcd1329f7)" style="fill: #b40426"/>
    <path d="M 153.492731 666.152691 
L 154.285839 682.523958 
L 155.562516 681.806389 
L 153.916883 688.443308 
L 151.63741 681.996542 
L 152.977471 682.587342 
L 152.184363 666.216075 
L 153.492731 666.152691 
" clip-path="url(#p4dcd1329f7)" style="fill: #b40426"/>
    <path d="M 102.061291 635.855899 
L 105.903367 651.608161 
L 107.020766 650.661469 
L 106.663843 657.490042 
L 103.202977 651.592652 
L 104.630771 651.918556 
L 100.788695 636.166293 
L 102.061291 635.855899 
" clip-path="url(#p4dcd1329f7)" style="fill: #b70d28"/>
    <path d="M 156.337883 592.590245 
L 162.163704 607.955773 
L 163.156331 606.878973 
L 163.641047 613.699666 
L 159.481866 608.272142 
L 160.938883 608.420163 
L 155.113061 593.054635 
L 156.337883 592.590245 
" clip-path="url(#p4dcd1329f7)" style="fill: #b40426"/>
   </g>
  </g>
  <g id="axes_12">
   <g id="Quiver_8">
    <path d="M 250.334987 588.575309 
L 236.284261 584.241752 
L 236.570401 585.965681 
L 229.793391 581.421984 
L 237.952379 581.484881 
L 236.74492 582.748152 
L 250.795647 587.081709 
L 250.334987 588.575309 
" clip-path="url(#p5a1c518743)" style="fill: #f7a98b"/>
    <path d="M 203.140889 648.380275 
L 184.280603 637.473877 
L 184.174693 639.21818 
L 178.582975 633.276317 
L 186.52204 635.158945 
L 185.063052 636.120799 
L 203.923338 647.027196 
L 203.140889 648.380275 
" clip-path="url(#p5a1c518743)" style="fill: #ca3b37"/>
    <path d="M 238.161725 682.571662 
L 216.222131 678.426841 
L 216.699906 680.107775 
L 209.455849 676.35322 
L 217.570367 675.500202 
L 216.512285 676.890983 
L 238.451878 681.035805 
L 238.161725 682.571662 
" clip-path="url(#p5a1c518743)" style="fill: #c43032"/>
    <path d="M 233.129032 640.257482 
L 213.154989 633.84009 
L 213.420933 635.56725 
L 206.697566 630.944548 
L 214.855259 631.102932 
L 213.633097 632.351983 
L 233.607141 638.769376 
L 233.129032 640.257482 
" clip-path="url(#p5a1c518743)" style="fill: #d24b40"/>
    <path d="M 179.512727 607.568289 
L 166.575685 590.790745 
L 165.815129 592.364074 
L 162.899591 584.743529 
L 169.528459 589.500752 
L 167.813462 589.836304 
L 180.750504 606.613848 
L 179.512727 607.568289 
" clip-path="url(#p5a1c518743)" style="fill: #d0473d"/>
    <path d="M 200.641966 590.601645 
L 188.889732 575.149939 
L 188.118766 576.718193 
L 185.253796 569.078494 
L 191.85099 573.879543 
L 190.133807 574.203722 
L 201.886041 589.655428 
L 200.641966 590.601645 
" clip-path="url(#p5a1c518743)" style="fill: #e16751"/>
    <path d="M 205.390179 589.480529 
L 193.508409 574.675172 
L 192.778546 576.262972 
L 189.715588 568.700476 
L 196.435578 573.328087 
L 194.72742 573.696877 
L 206.60919 588.502234 
L 205.390179 589.480529 
" clip-path="url(#p5a1c518743)" style="fill: #e46e56"/>
    <path d="M 233.477094 680.227943 
L 211.727603 675.313173 
L 212.145383 677.010014 
L 205.039229 673.000571 
L 213.178922 672.43626 
L 212.072116 673.788588 
L 233.821607 678.703358 
L 233.477094 680.227943 
" clip-path="url(#p5a1c518743)" style="fill: #c43032"/>
    <path d="M 179.119245 685.827045 
L 159.558531 674.194013 
L 159.431292 675.93689 
L 153.912677 669.92707 
L 161.828119 671.906673 
L 160.357474 672.850607 
L 179.918188 684.483639 
L 179.119245 685.827045 
" clip-path="url(#p5a1c518743)" style="fill: #be242e"/>
   </g>
  </g>
  <g id="axes_13">
   <g id="text_5">
    <!-- Type 5 -->
    <g transform="translate(349.49625 450.417391)scale(0.12 -0.12)">
     <defs>
      <path id="DejaVuSans-35" d="M 691 4666 
L 3169 4666 
L 3169 4134 
L 1269 4134 
L 1269 2991 
Q 1406 3038 1543 3061 
Q 1681 3084 1819 3084 
Q 2600 3084 3056 2656 
Q 3513 2228 3513 1497 
Q 3513 744 3044 326 
Q 2575 -91 1722 -91 
Q 1428 -91 1123 -41 
Q 819 9 494 109 
L 494 744 
Q 775 591 1075 516 
Q 1375 441 1709 441 
Q 2250 441 2565 725 
Q 2881 1009 2881 1497 
Q 2881 1984 2565 2268 
Q 2250 2553 1709 2553 
Q 1456 2553 1204 2497 
Q 953 2441 691 2322 
L 691 4666 
z
" transform="scale(0.015625)"/>
     </defs>
     <use xlink:href="#DejaVuSans-54"/>
     <use xlink:href="#DejaVuSans-79" x="45.458984"/>
     <use xlink:href="#DejaVuSans-70" x="104.638672"/>
     <use xlink:href="#DejaVuSans-65" x="168.115234"/>
     <use xlink:href="#DejaVuSans-20" x="229.638672"/>
     <use xlink:href="#DejaVuSans-35" x="261.425781"/>
    </g>
   </g>
  </g>
  <g id="axes_14">
   <g id="Quiver_9">
    <path d="M 308.642434 621.509044 
L 314.296076 627.019725 
L 314.827416 625.354947 
L 318.787374 632.488795 
L 311.554465 628.712807 
L 313.205092 628.139012 
L 307.55145 622.628331 
L 308.642434 621.509044 
" clip-path="url(#pda573e72fb)" style="fill: #f5a081"/>
    <path d="M 335.708768 611.848413 
L 341.963366 621.12753 
L 342.822635 619.605864 
L 345.246638 627.396709 
L 338.93439 622.226739 
L 340.667284 622.001155 
L 334.412687 612.722038 
L 335.708768 611.848413 
" clip-path="url(#pda573e72fb)" style="fill: #d85646"/>
    <path d="M 362.19096 594.728226 
L 369.080258 605.093017 
L 369.949354 603.576942 
L 372.322903 611.383306 
L 366.044235 606.172608 
L 367.778552 605.958239 
L 360.889254 595.593448 
L 362.19096 594.728226 
" clip-path="url(#pda573e72fb)" style="fill: #c43032"/>
    <path d="M 316.397671 663.944947 
L 312.483363 671.1724 
L 314.229943 671.22956 
L 308.446543 676.985021 
L 310.106742 668.99648 
L 311.108963 670.42804 
L 315.023271 663.200587 
L 316.397671 663.944947 
" clip-path="url(#pda573e72fb)" style="fill: #f49a7b"/>
    <path d="M 311.972923 624.548848 
L 316.934556 630.805314 
L 317.673616 629.221773 
L 320.692663 636.801905 
L 313.999624 632.135399 
L 315.709892 631.776522 
L 310.748259 625.520056 
L 311.972923 624.548848 
" clip-path="url(#pda573e72fb)" style="fill: #f59f80"/>
    <path d="M 341.740488 627.240483 
L 345.270342 637.758566 
L 346.503502 636.520371 
L 346.767253 644.675339 
L 342.058084 638.012247 
L 343.788536 638.255858 
L 340.258682 627.737775 
L 341.740488 627.240483 
" clip-path="url(#pda573e72fb)" style="fill: #d95847"/>
    <path d="M 306.299214 678.46611 
L 299.195451 683.371286 
L 300.726667 684.213417 
L 292.963527 686.724732 
L 298.062306 680.354841 
L 298.30733 682.085094 
L 305.411093 677.179918 
L 306.299214 678.46611 
" clip-path="url(#pda573e72fb)" style="fill: #f29274"/>
    <path d="M 290.604704 602.327272 
L 300.040679 603.683664 
L 299.489512 602.025344 
L 306.891534 605.457999 
L 298.822329 606.666713 
L 299.818285 605.230787 
L 290.382309 603.874395 
L 290.604704 602.327272 
" clip-path="url(#pda573e72fb)" style="fill: #ec7f63"/>
   </g>
  </g>
  <g id="axes_15">
   <g id="Quiver_10">
    <path d="M 406.635945 626.719429 
L 399.727737 619.642628 
L 399.15518 621.293685 
L 395.373769 614.06361 
L 402.510585 618.018217 
L 400.846205 618.550806 
L 407.754413 625.627607 
L 406.635945 626.719429 
" clip-path="url(#p3f802a3437)" style="fill: #d75445"/>
    <path d="M 391.810406 602.25061 
L 389.045822 592.723139 
L 387.762503 593.909268 
L 387.836284 585.750371 
L 392.265823 592.602541 
L 390.546929 592.287563 
L 393.311512 601.815034 
L 391.810406 602.25061 
" clip-path="url(#p3f802a3437)" style="fill: #d75445"/>
    <path d="M 434.12424 673.216658 
L 423.251583 671.419692 
L 423.767766 673.089232 
L 416.439544 669.501725 
L 424.532375 668.462916 
L 423.506453 669.877586 
L 434.37911 671.674553 
L 434.12424 673.216658 
" clip-path="url(#p3f802a3437)" style="fill: #c43032"/>
    <path d="M 439.070891 637.437389 
L 429.771169 635.726353 
L 430.25695 637.404992 
L 422.99508 633.685006 
L 431.105441 632.793322 
L 430.053999 634.18913 
L 439.353721 635.900166 
L 439.070891 637.437389 
" clip-path="url(#p3f802a3437)" style="fill: #de614d"/>
    <path d="M 388.903419 670.727697 
L 379.667987 664.240286 
L 379.409055 665.968512 
L 374.361672 659.557819 
L 382.104364 662.131489 
L 380.566424 662.961279 
L 389.801855 669.44869 
L 388.903419 670.727697 
" clip-path="url(#p3f802a3437)" style="fill: #be242e"/>
    <path d="M 417.468312 636.510033 
L 408.990266 631.311482 
L 408.839459 633.052478 
L 403.402654 626.968548 
L 411.29059 629.055056 
L 409.807309 629.979008 
L 418.285356 635.177558 
L 417.468312 636.510033 
" clip-path="url(#p3f802a3437)" style="fill: #d65244"/>
    <path d="M 447.441864 595.532401 
L 446.885761 595.467772 
L 447.312605 596.644608 
L 441.945463 594.330004 
L 447.700382 593.307989 
L 447.01502 594.355566 
L 447.571123 594.420195 
L 447.441864 595.532401 
" clip-path="url(#p3f802a3437)" style="fill: #9dbdff"/>
    <path d="M 428.287332 604.107483 
L 424.548665 599.969074 
L 423.912739 601.596774 
L 420.41352 594.225986 
L 427.392201 598.453404 
L 425.708485 598.921284 
L 429.447153 603.059693 
L 428.287332 604.107483 
" clip-path="url(#p3f802a3437)" style="fill: #f7b89c"/>
    <path d="M 422.064164 672.68093 
L 411.478795 669.451642 
L 411.770215 671.174687 
L 404.979318 666.651771 
L 413.138461 666.689675 
L 411.934877 667.956638 
L 422.520246 671.185926 
L 422.064164 672.68093 
" clip-path="url(#p3f802a3437)" style="fill: #c32e31"/>
    <path d="M 375.78528 628.349243 
L 370.272282 618.922637 
L 369.317592 620.386324 
L 367.396065 612.456583 
L 373.365271 618.019104 
L 371.621508 618.133564 
L 377.134506 627.560169 
L 375.78528 628.349243 
" clip-path="url(#p3f802a3437)" style="fill: #c53334"/>
    <path d="M 441.40824 678.786755 
L 430.326587 677.932808 
L 430.985699 679.551258 
L 423.373809 676.613201 
L 431.345969 674.876043 
L 430.446677 676.374403 
L 441.52833 677.22835 
L 441.40824 678.786755 
" clip-path="url(#p3f802a3437)" style="fill: #c32e31"/>
    <path d="M 408.286913 663.358373 
L 398.53061 658.291728 
L 398.50381 660.039037 
L 392.648715 654.356528 
L 400.664901 655.877653 
L 399.250973 656.9046 
L 409.007277 661.971245 
L 408.286913 663.358373 
" clip-path="url(#p3f802a3437)" style="fill: #c43032"/>
   </g>
  </g>
  <g id="axes_16">
   <g id="text_6">
    <!-- Type 6 -->
    <g transform="translate(546.437426 450.417391)scale(0.12 -0.12)">
     <defs>
      <path id="DejaVuSans-36" d="M 2113 2584 
Q 1688 2584 1439 2293 
Q 1191 2003 1191 1497 
Q 1191 994 1439 701 
Q 1688 409 2113 409 
Q 2538 409 2786 701 
Q 3034 994 3034 1497 
Q 3034 2003 2786 2293 
Q 2538 2584 2113 2584 
z
M 3366 4563 
L 3366 3988 
Q 3128 4100 2886 4159 
Q 2644 4219 2406 4219 
Q 1781 4219 1451 3797 
Q 1122 3375 1075 2522 
Q 1259 2794 1537 2939 
Q 1816 3084 2150 3084 
Q 2853 3084 3261 2657 
Q 3669 2231 3669 1497 
Q 3669 778 3244 343 
Q 2819 -91 2113 -91 
Q 1303 -91 875 529 
Q 447 1150 447 2328 
Q 447 3434 972 4092 
Q 1497 4750 2381 4750 
Q 2619 4750 2861 4703 
Q 3103 4656 3366 4563 
z
" transform="scale(0.015625)"/>
     </defs>
     <use xlink:href="#DejaVuSans-54"/>
     <use xlink:href="#DejaVuSans-79" x="45.458984"/>
     <use xlink:href="#DejaVuSans-70" x="104.638672"/>
     <use xlink:href="#DejaVuSans-65" x="168.115234"/>
     <use xlink:href="#DejaVuSans-20" x="229.638672"/>
     <use xlink:href="#DejaVuSans-36" x="261.425781"/>
    </g>
   </g>
  </g>
  <g id="axes_17">
   <g id="Quiver_11">
    <path d="M 554.249543 622.963564 
L 556.866141 630.561774 
L 557.994214 629.411141 
L 558.296533 636.928616 
L 553.906078 630.818973 
L 555.503429 631.031051 
L 552.886831 623.432842 
L 554.249543 622.963564 
" clip-path="url(#p41a0b28519)" style="fill: #c53334"/>
    <path d="M 556.25058 584.853709 
L 561.843185 591.100318 
L 562.436285 589.602072 
L 565.632399 596.412997 
L 559.214951 592.486141 
L 560.769407 592.061674 
L 555.176802 585.815065 
L 556.25058 584.853709 
" clip-path="url(#p41a0b28519)" style="fill: #bd1f2d"/>
    <path d="M 507.248996 671.73823 
L 502.637788 675.084522 
L 504.067516 675.827747 
L 496.965421 678.310503 
L 501.528038 672.328333 
L 501.791295 673.918051 
L 506.402503 670.571758 
L 507.248996 671.73823 
" clip-path="url(#p41a0b28519)" style="fill: #ee8468"/>
    <path d="M 510.27614 688.290144 
L 503.873562 691.5869 
L 505.174029 692.538368 
L 497.777543 693.915258 
L 503.194669 688.694284 
L 503.213775 690.305538 
L 509.616354 687.008783 
L 510.27614 688.290144 
" clip-path="url(#p41a0b28519)" style="fill: #d75445"/>
    <path d="M 513.771981 678.443429 
L 508.451113 682.573707 
L 509.904116 683.270333 
L 502.885977 685.981341 
L 507.252859 679.854827 
L 507.56736 681.435205 
L 512.888229 677.304927 
L 513.771981 678.443429 
" clip-path="url(#p41a0b28519)" style="fill: #df634e"/>
    <path d="M 516.561909 669.925798 
L 512.439429 674.723401 
L 514.002204 675.116138 
L 507.66602 679.172813 
L 510.722829 672.29824 
L 511.346304 673.784102 
L 515.468784 668.986499 
L 516.561909 669.925798 
" clip-path="url(#p41a0b28519)" style="fill: #e57058"/>
    <path d="M 506.173978 652.232241 
L 505.219081 654.827097 
L 506.820526 654.648552 
L 502.302953 660.66481 
L 502.762803 653.155325 
L 503.866506 654.329355 
L 504.821404 651.734498 
L 506.173978 652.232241 
" clip-path="url(#p41a0b28519)" style="fill: #f2c9b4"/>
    <path d="M 490.251664 673.667059 
L 485.247748 674.010815 
L 486.065456 675.399289 
L 478.727979 673.736382 
L 485.769124 671.085702 
L 485.148971 672.572953 
L 490.152886 672.229197 
L 490.251664 673.667059 
" clip-path="url(#p41a0b28519)" style="fill: #f39778"/>
    <path d="M 491.720382 659.97684 
L 490.567031 660.250223 
L 491.600641 661.486409 
L 484.090056 661.044888 
L 490.6034 657.27923 
L 490.234617 658.84783 
L 491.387968 658.574447 
L 491.720382 659.97684 
" clip-path="url(#p41a0b28519)" style="fill: #dddcdc"/>
   </g>
  </g>
  <g id="axes_18">
   <g id="Quiver_12">
    <path d="M 591.320808 664.126416 
L 596.32693 650.167305 
L 594.968132 650.330194 
L 598.762464 645.189038 
L 598.424713 651.569819 
L 597.479123 650.580514 
L 592.473002 664.539625 
L 591.320808 664.126416 
" clip-path="url(#p4ff11d7a25)" style="fill: #ee8468"/>
    <path d="M 635.080585 590.043908 
L 653.023269 588.80949 
L 652.328675 587.630336 
L 658.560499 589.042011 
L 652.580715 591.293818 
L 653.107282 590.030651 
L 635.164599 591.265068 
L 635.080585 590.043908 
" clip-path="url(#p4ff11d7a25)" style="fill: #cf453c"/>
    <path d="M 624.201175 652.273238 
L 633.668143 646.808501 
L 632.526152 646.054364 
L 638.744586 644.584832 
L 634.361966 649.234681 
L 634.280081 647.868606 
L 624.813113 653.333343 
L 624.201175 652.273238 
" clip-path="url(#p4ff11d7a25)" style="fill: #f6bea4"/>
    <path d="M 627.752167 622.167531 
L 643.218755 618.641532 
L 642.34997 617.58414 
L 648.725214 618.013922 
L 643.166185 621.164422 
L 643.490827 619.834959 
L 628.024239 623.360958 
L 627.752167 622.167531 
" clip-path="url(#p4ff11d7a25)" style="fill: #e57058"/>
    <path d="M 580.685049 617.742783 
L 593.642838 605.51395 
L 592.357603 605.043805 
L 598.068846 602.17847 
L 594.877993 607.714434 
L 594.482968 606.404159 
L 581.525179 618.632993 
L 580.685049 617.742783 
" clip-path="url(#p4ff11d7a25)" style="fill: #d1493f"/>
    <path d="M 635.59327 584.723454 
L 653.753023 583.637991 
L 653.069056 582.452641 
L 659.28794 583.920268 
L 653.28816 586.118241 
L 653.826058 584.859857 
L 635.666304 585.945321 
L 635.59327 584.723454 
" clip-path="url(#p4ff11d7a25)" style="fill: #cc403a"/>
    <path d="M 626.230439 604.59948 
L 643.212705 601.272171 
L 642.37675 600.188638 
L 648.735819 600.813696 
L 643.082803 603.792263 
L 643.448056 602.473379 
L 626.46579 605.800688 
L 626.230439 604.59948 
" clip-path="url(#p4ff11d7a25)" style="fill: #d75445"/>
    <path d="M 636.452899 687.995536 
L 636.106827 687.704808 
L 635.871444 688.68768 
L 633.282905 684.742191 
L 637.615808 686.611247 
L 636.688281 687.012664 
L 637.034353 687.303392 
L 636.452899 687.995536 
" clip-path="url(#p4ff11d7a25)" style="fill: #7396f5"/>
   </g>
  </g>
  <g id="axes_19">
   <g id="text_7">
    <!-- Type 7 -->
    <g transform="translate(152.555074 734.034783)scale(0.12 -0.12)">
     <defs>
      <path id="DejaVuSans-37" d="M 525 4666 
L 3525 4666 
L 3525 4397 
L 1831 0 
L 1172 0 
L 2766 4134 
L 525 4134 
L 525 4666 
z
" transform="scale(0.015625)"/>
     </defs>
     <use xlink:href="#DejaVuSans-54"/>
     <use xlink:href="#DejaVuSans-79" x="45.458984"/>
     <use xlink:href="#DejaVuSans-70" x="104.638672"/>
     <use xlink:href="#DejaVuSans-65" x="168.115234"/>
     <use xlink:href="#DejaVuSans-20" x="229.638672"/>
     <use xlink:href="#DejaVuSans-37" x="261.425781"/>
    </g>
   </g>
  </g>
  <g id="axes_20">
   <g id="Quiver_13">
    <path d="M 143.857683 900.330793 
L 144.590616 902.200046 
L 145.760495 900.901896 
L 146.430592 909.033564 
L 141.395006 902.613601 
L 143.135453 902.770614 
L 142.40252 900.901361 
L 143.857683 900.330793 
" clip-path="url(#p143e9cdf5d)" style="fill: #bd1f2d"/>
    <path d="M 133.300457 883.564785 
L 134.638238 885.059007 
L 135.28145 883.434172 
L 138.74761 890.820564 
L 131.787939 886.561921 
L 133.473734 886.10159 
L 132.135954 884.607368 
L 133.300457 883.564785 
" clip-path="url(#p143e9cdf5d)" style="fill: #bd1f2d"/>
    <path d="M 93.695716 888.843334 
L 95.116755 888.929712 
L 94.431516 887.32215 
L 102.089994 890.136538 
L 94.147015 892.002586 
L 95.021921 890.489858 
L 93.600882 890.403479 
L 93.695716 888.843334 
" clip-path="url(#p143e9cdf5d)" style="fill: #d24b40"/>
    <path d="M 165.304717 885.787513 
L 166.238136 887.750548 
L 167.314109 886.373561 
L 168.552752 894.438226 
L 163.07939 888.387162 
L 164.826563 888.421748 
L 163.893144 886.458714 
L 165.304717 885.787513 
" clip-path="url(#p143e9cdf5d)" style="fill: #b50927"/>
    <path d="M 103.284822 907.120721 
L 103.82605 907.578218 
L 104.199815 906.038266 
L 108.239601 912.236914 
L 101.454836 909.285632 
L 102.911057 908.660673 
L 102.369829 908.203176 
L 103.284822 907.120721 
" clip-path="url(#p143e9cdf5d)" style="fill: #f39475"/>
    <path d="M 157.722047 962.344025 
L 156.570218 964.171215 
L 158.309209 964.343612 
L 152.158291 969.704513 
L 154.342506 961.843071 
L 155.247984 963.337702 
L 156.399813 961.510511 
L 157.722047 962.344025 
" clip-path="url(#p143e9cdf5d)" style="fill: #b50927"/>
    <path d="M 122.00032 933.827974 
L 121.417154 935.177656 
L 123.16195 935.080198 
L 117.90996 941.324368 
L 118.857491 933.220342 
L 119.982335 934.557704 
L 120.565501 933.208022 
L 122.00032 933.827974 
" clip-path="url(#p143e9cdf5d)" style="fill: #d1493f"/>
    <path d="M 141.354329 959.250334 
L 140.084307 960.886883 
L 141.798258 961.227738 
L 135.154709 965.964436 
L 138.093802 958.352946 
L 138.849488 959.928619 
L 140.11951 958.29207 
L 141.354329 959.250334 
" clip-path="url(#p143e9cdf5d)" style="fill: #ba162b"/>
    <path d="M 93.622942 940.064559 
L 92.892931 940.135172 
L 93.764167 941.524583 
L 86.252214 940.04067 
L 93.340493 937.144513 
L 92.751706 938.675148 
L 93.481718 938.604536 
L 93.622942 940.064559 
" clip-path="url(#p143e9cdf5d)" style="fill: #ef886b"/>
    <path d="M 98.372121 884.496713 
L 99.97269 884.788747 
L 99.484422 883.11083 
L 106.751795 886.820054 
L 98.642764 887.723751 
L 99.692137 886.326387 
L 98.091569 886.034353 
L 98.372121 884.496713 
" clip-path="url(#p143e9cdf5d)" style="fill: #cb3e38"/>
    <path d="M 112.256643 894.756823 
L 113.417212 895.67182 
L 113.771208 893.960535 
L 118.45679 900.640234 
L 110.868075 897.642824 
L 112.449501 896.89925 
L 111.288932 895.984252 
L 112.256643 894.756823 
" clip-path="url(#p143e9cdf5d)" style="fill: #d0473d"/>
    <path d="M 95.962149 884.456624 
L 97.567362 884.642621 
L 96.970948 883.000031 
L 104.464276 886.228513 
L 96.431233 887.657943 
L 97.387456 886.195258 
L 95.782244 886.009261 
L 95.962149 884.456624 
" clip-path="url(#p143e9cdf5d)" style="fill: #cb3e38"/>
    <path d="M 113.109523 877.590869 
L 114.813959 878.433979 
L 114.806473 876.68648 
L 120.771926 882.253024 
L 112.727441 880.889461 
L 114.120948 879.834973 
L 112.416512 878.991863 
L 113.109523 877.590869 
" clip-path="url(#p143e9cdf5d)" style="fill: #c12b30"/>
   </g>
  </g>
  <g id="axes_21">
   <g id="Quiver_14">
    <path d="M 248.339619 933.55953 
L 247.850121 933.406928 
L 248.034416 934.538527 
L 243.597237 931.544016 
L 248.950025 931.601537 
L 248.155324 932.427932 
L 248.644822 932.580533 
L 248.339619 933.55953 
" clip-path="url(#peda81c717e)" style="fill: #f4c6af"/>
    <path d="M 250.542548 957.456727 
L 249.763185 957.433958 
L 250.49701 959.015453 
L 242.771684 956.449675 
L 250.633624 954.339274 
L 249.808723 955.875231 
L 250.588086 955.898 
L 250.542548 957.456727 
" clip-path="url(#peda81c717e)" style="fill: #ca3b37"/>
    <path d="M 191.470978 905.022646 
L 191.811442 903.903172 
L 190.088649 904.196078 
L 194.605707 897.401282 
L 194.57484 905.560455 
L 193.306839 904.357964 
L 192.966375 905.477439 
L 191.470978 905.022646 
" clip-path="url(#peda81c717e)" style="fill: #b70d28"/>
    <path d="M 178.799794 892.284673 
L 179.285188 891.145959 
L 177.540892 891.251979 
L 182.762172 884.982107 
L 181.854427 893.090686 
L 180.723033 891.758861 
L 180.237639 892.897576 
L 178.799794 892.284673 
" clip-path="url(#peda81c717e)" style="fill: #b40426"/>
    <path d="M 207.716128 889.156439 
L 208.404359 888.27285 
L 206.69102 887.928932 
L 213.343024 883.204116 
L 210.390333 890.810341 
L 209.637463 889.233319 
L 208.949232 890.116908 
L 207.716128 889.156439 
" clip-path="url(#peda81c717e)" style="fill: #ba162b"/>
    <path d="M 206.878946 896.036662 
L 207.447244 895.105409 
L 205.705931 894.95831 
L 211.778269 889.508561 
L 209.708564 897.400923 
L 208.781455 895.919613 
L 208.213157 896.850866 
L 206.878946 896.036662 
" clip-path="url(#peda81c717e)" style="fill: #bb1b2c"/>
    <path d="M 194.646834 896.627411 
L 195.143504 895.567656 
L 193.396551 895.612005 
L 198.836013 889.530451 
L 197.642456 897.601911 
L 196.558805 896.230958 
L 196.062136 897.290713 
L 194.646834 896.627411 
" clip-path="url(#peda81c717e)" style="fill: #b70d28"/>
    <path d="M 185.239262 883.136414 
L 185.878067 882.081662 
L 184.136269 881.940421 
L 190.190244 876.47028 
L 188.147095 884.369558 
L 187.215009 882.891375 
L 186.576204 883.946126 
L 185.239262 883.136414 
" clip-path="url(#peda81c717e)" style="fill: #b50927"/>
    <path d="M 185.340532 912.859893 
L 185.526136 911.682034 
L 183.860514 912.210726 
L 187.392952 904.8558 
L 188.492436 912.940612 
L 187.070109 911.92533 
L 186.884506 913.103188 
L 185.340532 912.859893 
" clip-path="url(#peda81c717e)" style="fill: #b70d28"/>
    <path d="M 207.418672 903.693267 
L 207.843506 902.73683 
L 206.09781 902.816561 
L 211.412951 896.626057 
L 210.383156 904.720041 
L 209.271954 903.371323 
L 208.847121 904.327761 
L 207.418672 903.693267 
" clip-path="url(#peda81c717e)" style="fill: #bd1f2d"/>
    <path d="M 210.266041 885.987638 
L 211.017485 885.156208 
L 209.33387 884.687966 
L 216.313459 880.462048 
L 212.812656 887.832084 
L 212.17708 886.204247 
L 211.425636 887.035677 
L 210.266041 885.987638 
" clip-path="url(#peda81c717e)" style="fill: #ba162b"/>
   </g>
  </g>
  <g id="axes_22">
   <g id="text_8">
    <!-- Type 8 -->
    <g transform="translate(349.49625 734.034783)scale(0.12 -0.12)">
     <defs>
      <path id="DejaVuSans-38" d="M 2034 2216 
Q 1584 2216 1326 1975 
Q 1069 1734 1069 1313 
Q 1069 891 1326 650 
Q 1584 409 2034 409 
Q 2484 409 2743 651 
Q 3003 894 3003 1313 
Q 3003 1734 2745 1975 
Q 2488 2216 2034 2216 
z
M 1403 2484 
Q 997 2584 770 2862 
Q 544 3141 544 3541 
Q 544 4100 942 4425 
Q 1341 4750 2034 4750 
Q 2731 4750 3128 4425 
Q 3525 4100 3525 3541 
Q 3525 3141 3298 2862 
Q 3072 2584 2669 2484 
Q 3125 2378 3379 2068 
Q 3634 1759 3634 1313 
Q 3634 634 3220 271 
Q 2806 -91 2034 -91 
Q 1263 -91 848 271 
Q 434 634 434 1313 
Q 434 1759 690 2068 
Q 947 2378 1403 2484 
z
M 1172 3481 
Q 1172 3119 1398 2916 
Q 1625 2713 2034 2713 
Q 2441 2713 2670 2916 
Q 2900 3119 2900 3481 
Q 2900 3844 2670 4047 
Q 2441 4250 2034 4250 
Q 1625 4250 1398 4047 
Q 1172 3844 1172 3481 
z
" transform="scale(0.015625)"/>
     </defs>
     <use xlink:href="#DejaVuSans-54"/>
     <use xlink:href="#DejaVuSans-79" x="45.458984"/>
     <use xlink:href="#DejaVuSans-70" x="104.638672"/>
     <use xlink:href="#DejaVuSans-65" x="168.115234"/>
     <use xlink:href="#DejaVuSans-20" x="229.638672"/>
     <use xlink:href="#DejaVuSans-38" x="261.425781"/>
    </g>
   </g>
  </g>
  <g id="axes_23">
   <g id="Quiver_15">
    <path d="M 297.49204 919.323239 
L 302.735506 926.357906 
L 303.521652 924.797206 
L 306.312365 932.464342 
L 299.762062 927.599511 
L 301.482309 927.292008 
L 296.238843 920.257341 
L 297.49204 919.323239 
" clip-path="url(#pc9879a813c)" style="fill: #b8122a"/>
    <path d="M 323.30266 914.050438 
L 328.034395 921.577114 
L 328.941714 920.0836 
L 331.11624 927.947727 
L 324.971933 922.579251 
L 326.711135 922.408997 
L 321.979399 914.882321 
L 323.30266 914.050438 
" clip-path="url(#pc9879a813c)" style="fill: #b50927"/>
    <path d="M 319.890362 908.085398 
L 324.981953 915.375458 
L 325.815886 913.839761 
L 328.368672 921.589363 
L 321.971611 916.524715 
L 323.700528 916.270443 
L 318.608937 908.980383 
L 319.890362 908.085398 
" clip-path="url(#pc9879a813c)" style="fill: #b50927"/>
    <path d="M 321.211388 929.619811 
L 325.216975 937.513902 
L 326.257196 936.109712 
L 327.702732 944.139873 
L 322.075637 938.231502 
L 323.823121 938.221165 
L 319.817535 930.327074 
L 321.211388 929.619811 
" clip-path="url(#pc9879a813c)" style="fill: #b70d28"/>
    <path d="M 362.274309 931.417957 
L 365.347142 939.842877 
L 366.547759 938.573102 
L 367.023018 946.71848 
L 362.142548 940.179821 
L 363.878738 940.37845 
L 360.805905 931.95353 
L 362.274309 931.417957 
" clip-path="url(#pc9879a813c)" style="fill: #b40426"/>
    <path d="M 291.121941 924.606335 
L 296.303323 931.615216 
L 297.095616 930.057627 
L 299.856077 937.735707 
L 293.325006 932.845087 
L 295.046453 932.544369 
L 289.865071 925.535488 
L 291.121941 924.606335 
" clip-path="url(#pc9879a813c)" style="fill: #ba162b"/>
   </g>
  </g>
  <g id="axes_24">
   <g id="Quiver_16">
    <path d="M 408.167168 936.053584 
L 406.172551 925.68733 
L 404.785346 926.750097 
L 405.610995 918.632747 
L 409.389957 925.864103 
L 407.707421 925.391999 
L 409.702039 935.758253 
L 408.167168 936.053584 
" clip-path="url(#pc63ed14675)" style="fill: #e7745b"/>
    <path d="M 405.231139 955.879167 
L 399.604525 945.880119 
L 398.625612 947.327717 
L 396.836302 939.3671 
L 402.712121 945.028178 
L 400.966695 945.113606 
L 406.593308 955.112654 
L 405.231139 955.879167 
" clip-path="url(#pc63ed14675)" style="fill: #dd5f4b"/>
    <path d="M 426.379503 935.679787 
L 424.266048 928.487251 
L 422.986748 929.677713 
L 423.032936 921.518613 
L 427.485623 928.355764 
L 425.765673 928.046601 
L 427.879128 935.239137 
L 426.379503 935.679787 
" clip-path="url(#pc63ed14675)" style="fill: #f7b093"/>
    <path d="M 416.065599 881.456568 
L 424.622713 873.652697 
L 422.992043 873.024424 
L 430.346313 869.49062 
L 426.151723 876.489082 
L 425.67594 874.807583 
L 417.118826 882.611454 
L 416.065599 881.456568 
" clip-path="url(#pc63ed14675)" style="fill: #dc5d4a"/>
    <path d="M 447.276164 958.931423 
L 439.734767 956.605488 
L 440.020908 958.329418 
L 433.243897 953.785721 
L 441.402886 953.848618 
L 440.195427 955.111888 
L 447.736823 957.437823 
L 447.276164 958.931423 
" clip-path="url(#pc63ed14675)" style="fill: #f7a98b"/>
    <path d="M 402.139012 920.790318 
L 403.306248 909.738605 
L 401.669785 910.351628 
L 404.822191 902.825979 
L 406.332925 910.844129 
L 404.860628 909.902772 
L 403.693392 920.954485 
L 402.139012 920.790318 
" clip-path="url(#pc63ed14675)" style="fill: #e16751"/>
    <path d="M 398.519903 896.944448 
L 403.884087 886.325844 
L 402.136586 886.318633 
L 407.753103 880.400205 
L 406.321935 888.432939 
L 405.279203 887.030612 
L 399.91502 897.649217 
L 398.519903 896.944448 
" clip-path="url(#pc63ed14675)" style="fill: #d75445"/>
    <path d="M 416.364163 931.091714 
L 415.347593 921.818197 
L 413.879035 922.765376 
L 415.358012 914.741307 
L 418.540188 922.254416 
L 416.90131 921.647877 
L 417.917881 930.921394 
L 416.364163 931.091714 
" clip-path="url(#pc63ed14675)" style="fill: #f18f71"/>
    <path d="M 399.628951 946.111597 
L 395.922706 935.161623 
L 394.692744 936.402994 
L 394.407962 928.248735 
L 399.134299 934.899658 
L 397.403224 934.660511 
L 401.109469 945.610485 
L 399.628951 946.111597 
" clip-path="url(#pc63ed14675)" style="fill: #dc5d4a"/>
    <path d="M 375.678389 927.002314 
L 375.617622 914.356571 
L 374.05837 915.145586 
L 376.365326 907.319284 
L 378.747391 915.123053 
L 377.180629 914.34906 
L 377.241397 926.994804 
L 375.678389 927.002314 
" clip-path="url(#pc63ed14675)" style="fill: #cc403a"/>
   </g>
  </g>
  <g id="axes_25">
   <g id="text_9">
    <!-- Type 9 -->
    <g transform="translate(546.437426 734.034783)scale(0.12 -0.12)">
     <defs>
      <path id="DejaVuSans-39" d="M 703 97 
L 703 672 
Q 941 559 1184 500 
Q 1428 441 1663 441 
Q 2288 441 2617 861 
Q 2947 1281 2994 2138 
Q 2813 1869 2534 1725 
Q 2256 1581 1919 1581 
Q 1219 1581 811 2004 
Q 403 2428 403 3163 
Q 403 3881 828 4315 
Q 1253 4750 1959 4750 
Q 2769 4750 3195 4129 
Q 3622 3509 3622 2328 
Q 3622 1225 3098 567 
Q 2575 -91 1691 -91 
Q 1453 -91 1209 -44 
Q 966 3 703 97 
z
M 1959 2075 
Q 2384 2075 2632 2365 
Q 2881 2656 2881 3163 
Q 2881 3666 2632 3958 
Q 2384 4250 1959 4250 
Q 1534 4250 1286 3958 
Q 1038 3666 1038 3163 
Q 1038 2656 1286 2365 
Q 1534 2075 1959 2075 
z
" transform="scale(0.015625)"/>
     </defs>
     <use xlink:href="#DejaVuSans-54"/>
     <use xlink:href="#DejaVuSans-79" x="45.458984"/>
     <use xlink:href="#DejaVuSans-70" x="104.638672"/>
     <use xlink:href="#DejaVuSans-65" x="168.115234"/>
     <use xlink:href="#DejaVuSans-20" x="229.638672"/>
     <use xlink:href="#DejaVuSans-39" x="261.425781"/>
    </g>
   </g>
  </g>
  <g id="axes_26">
   <g id="Quiver_17">
    <path d="M 492.825576 786.935064 
L 479.458972 800.301668 
L 481.116811 800.854281 
L 473.932843 804.722571 
L 477.801133 797.538603 
L 478.353746 799.196442 
L 491.72035 785.829838 
L 492.825576 786.935064 
" clip-path="url(#pc5ea2c2d78)" style="fill: #b40426"/>
    <path d="M 529.400611 794.100548 
L 516.034007 807.467152 
L 517.691846 808.019765 
L 510.507878 811.888055 
L 514.376168 804.704088 
L 514.928781 806.361926 
L 528.295385 792.995322 
L 529.400611 794.100548 
" clip-path="url(#pc5ea2c2d78)" style="fill: #b40426"/>
    <path d="M 502.327266 769.032523 
L 488.960662 782.399127 
L 490.618501 782.95174 
L 483.434534 786.82003 
L 487.302824 779.636063 
L 487.855437 781.293901 
L 501.22204 767.927298 
L 502.327266 769.032523 
" clip-path="url(#pc5ea2c2d78)" style="fill: #b40426"/>
    <path d="M 487.987296 811.624825 
L 474.620692 824.991429 
L 476.278531 825.544042 
L 469.094564 829.412332 
L 472.962854 822.228365 
L 473.515466 823.886203 
L 486.88207 810.5196 
L 487.987296 811.624825 
" clip-path="url(#pc5ea2c2d78)" style="fill: #b40426"/>
    <path d="M 530.263614 787.871746 
L 516.89701 801.23835 
L 518.554848 801.790963 
L 511.370881 805.659253 
L 515.239171 798.475285 
L 515.791784 800.133124 
L 529.158388 786.76652 
L 530.263614 787.871746 
" clip-path="url(#pc5ea2c2d78)" style="fill: #b40426"/>
    <path d="M 519.627655 793.456348 
L 506.261051 806.822952 
L 507.91889 807.375565 
L 500.734923 811.243855 
L 504.603213 804.059888 
L 505.155825 805.717726 
L 518.522429 792.351123 
L 519.627655 793.456348 
" clip-path="url(#pc5ea2c2d78)" style="fill: #b40426"/>
    <path d="M 497.432126 828.264392 
L 484.065522 841.630996 
L 485.72336 842.183609 
L 478.539393 846.051899 
L 482.407683 838.867932 
L 482.960296 840.52577 
L 496.3269 827.159167 
L 497.432126 828.264392 
" clip-path="url(#pc5ea2c2d78)" style="fill: #b40426"/>
    <path d="M 515.182301 759.615363 
L 501.815697 772.981966 
L 503.473536 773.534579 
L 496.289569 777.402869 
L 500.157859 770.218902 
L 500.710472 771.876741 
L 514.077075 758.510137 
L 515.182301 759.615363 
" clip-path="url(#pc5ea2c2d78)" style="fill: #b40426"/>
    <path d="M 522.213798 834.106012 
L 508.847194 847.472616 
L 510.505032 848.025229 
L 503.321065 851.893519 
L 507.189355 844.709552 
L 507.741968 846.36739 
L 521.108572 833.000786 
L 522.213798 834.106012 
" clip-path="url(#pc5ea2c2d78)" style="fill: #b40426"/>
    <path d="M 509.957432 782.02408 
L 496.590828 795.390683 
L 498.248667 795.943296 
L 491.0647 799.811586 
L 494.93299 792.627619 
L 495.485602 794.285458 
L 508.852206 780.918854 
L 509.957432 782.02408 
" clip-path="url(#pc5ea2c2d78)" style="fill: #b40426"/>
    <path d="M 559.033896 792.128387 
L 545.667293 805.494991 
L 547.325131 806.047604 
L 540.141164 809.915894 
L 544.009454 802.731927 
L 544.562067 804.389765 
L 557.928671 791.023162 
L 559.033896 792.128387 
" clip-path="url(#pc5ea2c2d78)" style="fill: #b40426"/>
    <path d="M 510.24736 796.470437 
L 496.880756 809.837041 
L 498.538595 810.389654 
L 491.354628 814.257944 
L 495.222918 807.073977 
L 495.775531 808.731815 
L 509.142134 795.365212 
L 510.24736 796.470437 
" clip-path="url(#pc5ea2c2d78)" style="fill: #b40426"/>
    <path d="M 534.005752 781.211341 
L 520.639149 794.577945 
L 522.296987 795.130558 
L 515.11302 798.998848 
L 518.98131 791.814881 
L 519.533923 793.472719 
L 532.900527 780.106115 
L 534.005752 781.211341 
" clip-path="url(#pc5ea2c2d78)" style="fill: #b40426"/>
   </g>
  </g>
  <g id="axes_27">
   <g id="Quiver_18">
    <path d="M 633.791871 796.325214 
L 655.495408 774.621676 
L 653.83757 774.069063 
L 661.021537 770.200773 
L 657.153247 777.384741 
L 656.600634 775.726902 
L 634.897096 797.43044 
L 633.791871 796.325214 
" clip-path="url(#p52a3df7b46)" style="fill: #b40426"/>
    <path d="M 573.667274 766.995277 
L 595.370812 745.291739 
L 593.712973 744.739127 
L 600.896941 740.870837 
L 597.028651 748.054804 
L 596.476038 746.396965 
L 574.7725 768.100503 
L 573.667274 766.995277 
" clip-path="url(#p52a3df7b46)" style="fill: #b40426"/>
    <path d="M 591.356906 770.645019 
L 613.060444 748.941482 
L 611.402605 748.388869 
L 618.586572 744.520579 
L 614.718282 751.704546 
L 614.165669 750.046707 
L 592.462132 771.750245 
L 591.356906 770.645019 
" clip-path="url(#p52a3df7b46)" style="fill: #b40426"/>
    <path d="M 643.895057 758.184242 
L 665.598595 736.480705 
L 663.940756 735.928092 
L 671.124723 732.059802 
L 667.256433 739.243769 
L 666.70382 737.585931 
L 645.000283 759.289468 
L 643.895057 758.184242 
" clip-path="url(#p52a3df7b46)" style="fill: #b40426"/>
    <path d="M 572.848457 833.326681 
L 594.551994 811.623143 
L 592.894156 811.07053 
L 600.078123 807.202241 
L 596.209833 814.386208 
L 595.65722 812.728369 
L 573.953682 834.431907 
L 572.848457 833.326681 
" clip-path="url(#p52a3df7b46)" style="fill: #b40426"/>
    <path d="M 607.590624 786.383643 
L 629.294161 764.680105 
L 627.636323 764.127492 
L 634.82029 760.259202 
L 630.952 767.44317 
L 630.399387 765.785331 
L 608.69585 787.488869 
L 607.590624 786.383643 
" clip-path="url(#p52a3df7b46)" style="fill: #b40426"/>
   </g>
  </g>
  <g id="axes_28">
   <g id="Quiver_19">
    <path d="M 517.973148 922.257169 
L 511.689157 937.304034 
L 513.432629 937.185228 
L 508.257456 943.49321 
L 509.10573 935.378194 
L 510.246857 936.701689 
L 516.530849 921.654824 
L 517.973148 922.257169 
" clip-path="url(#p83b52e33be)" style="fill: #b50927"/>
    <path d="M 559.196785 944.584394 
L 552.589148 959.624018 
L 554.334506 959.537226 
L 549.044453 965.749181 
L 550.041495 957.651097 
L 551.158144 958.995309 
L 557.765781 943.955684 
L 559.196785 944.584394 
" clip-path="url(#p83b52e33be)" style="fill: #b40426"/>
    <path d="M 510.350477 891.577022 
L 506.115112 907.254057 
L 507.827869 906.907251 
L 503.52619 913.840404 
L 503.301085 905.684279 
L 504.606184 906.8464 
L 508.841549 891.169364 
L 510.350477 891.577022 
" clip-path="url(#p83b52e33be)" style="fill: #b70d28"/>
    <path d="M 543.903097 949.189782 
L 536.675966 963.914373 
L 538.423434 963.901493 
L 532.875329 969.884099 
L 534.214055 961.835443 
L 535.27284 963.22569 
L 542.499971 948.501099 
L 543.903097 949.189782 
" clip-path="url(#p83b52e33be)" style="fill: #b40426"/>
    <path d="M 550.115391 904.619779 
L 545.694369 920.390601 
L 547.410326 920.059994 
L 543.043325 926.952189 
L 542.895301 918.794301 
L 544.189361 919.968703 
L 548.610382 904.197881 
L 550.115391 904.619779 
" clip-path="url(#p83b52e33be)" style="fill: #b40426"/>
    <path d="M 488.092845 946.338824 
L 479.332095 960.021547 
L 481.069827 960.206199 
L 474.881267 965.523602 
L 477.120852 957.677755 
L 478.01577 959.178732 
L 486.77652 945.49601 
L 488.092845 946.338824 
" clip-path="url(#p83b52e33be)" style="fill: #b70d28"/>
    <path d="M 523.609098 903.617277 
L 518.746254 919.17769 
L 520.47124 918.897985 
L 515.902284 925.657992 
L 515.995629 917.499295 
L 517.254384 918.71146 
L 522.117227 903.151047 
L 523.609098 903.617277 
" clip-path="url(#p83b52e33be)" style="fill: #b50927"/>
    <path d="M 529.039689 948.571678 
L 521.448878 963.075463 
L 523.196093 963.107823 
L 517.494979 968.944803 
L 519.041608 960.9335 
L 520.064049 962.350688 
L 527.65486 947.846903 
L 529.039689 948.571678 
" clip-path="url(#p83b52e33be)" style="fill: #b40426"/>
   </g>
  </g>
  <g id="axes_29">
   <g id="Quiver_20">
    <path d="M 607.513432 929.37809 
L 602.759823 901.288498 
L 601.349112 902.319858 
L 602.356767 894.223088 
L 605.972451 901.537449 
L 604.300937 901.027695 
L 609.054545 929.117287 
L 607.513432 929.37809 
" clip-path="url(#p45b301757d)" style="fill: #b50927"/>
    <path d="M 643.681202 931.844197 
L 638.144017 904.033503 
L 636.763686 905.105183 
L 637.537032 896.982684 
L 641.362495 904.189548 
L 639.676953 903.728291 
L 645.214138 931.538985 
L 643.681202 931.844197 
" clip-path="url(#p45b301757d)" style="fill: #b70d28"/>
    <path d="M 572.625914 920.620258 
L 568.987849 892.271554 
L 567.537015 893.245665 
L 568.867704 885.195677 
L 572.187949 892.648799 
L 570.53816 892.072599 
L 574.176225 920.421302 
L 572.625914 920.620258 
" clip-path="url(#p45b301757d)" style="fill: #b40426"/>
    <path d="M 602.049988 908.607348 
L 599.121729 880.26097 
L 597.647282 881.198956 
L 599.176359 873.184284 
L 602.311537 880.717126 
L 600.67648 880.10036 
L 603.604739 908.446737 
L 602.049988 908.607348 
" clip-path="url(#p45b301757d)" style="fill: #b50927"/>
    <path d="M 578.553373 931.486893 
L 574.003434 903.280878 
L 572.584813 904.301333 
L 573.654853 896.212571 
L 577.214047 903.554587 
L 575.546511 903.031963 
L 580.096451 931.237978 
L 578.553373 931.486893 
" clip-path="url(#p45b301757d)" style="fill: #b40426"/>
   </g>
  </g>
  <g id="axes_30">
   <g id="text_10">
    <!-- Type 10 -->
    <g transform="translate(148.737574 1017.652174)scale(0.12 -0.12)">
     <defs>
      <path id="DejaVuSans-30" d="M 2034 4250 
Q 1547 4250 1301 3770 
Q 1056 3291 1056 2328 
Q 1056 1369 1301 889 
Q 1547 409 2034 409 
Q 2525 409 2770 889 
Q 3016 1369 3016 2328 
Q 3016 3291 2770 3770 
Q 2525 4250 2034 4250 
z
M 2034 4750 
Q 2819 4750 3233 4129 
Q 3647 3509 3647 2328 
Q 3647 1150 3233 529 
Q 2819 -91 2034 -91 
Q 1250 -91 836 529 
Q 422 1150 422 2328 
Q 422 3509 836 4129 
Q 1250 4750 2034 4750 
z
" transform="scale(0.015625)"/>
     </defs>
     <use xlink:href="#DejaVuSans-54"/>
     <use xlink:href="#DejaVuSans-79" x="45.458984"/>
     <use xlink:href="#DejaVuSans-70" x="104.638672"/>
     <use xlink:href="#DejaVuSans-65" x="168.115234"/>
     <use xlink:href="#DejaVuSans-20" x="229.638672"/>
     <use xlink:href="#DejaVuSans-31" x="261.425781"/>
     <use xlink:href="#DejaVuSans-30" x="325.048828"/>
    </g>
   </g>
  </g>
  <g id="axes_31">
   <g id="Quiver_21">
    <path d="M 139.151791 1179.074116 
L 126.981707 1192.286952 
L 128.660832 1192.771051 
L 121.641697 1196.930956 
L 125.211852 1189.594264 
L 125.832048 1191.228023 
L 138.002131 1178.015187 
L 139.151791 1179.074116 
" clip-path="url(#p9ceeb9a9c1)" style="fill: #cb3e38"/>
    <path d="M 93.777213 1214.789614 
L 76.366284 1219.987271 
L 77.56225 1221.261428 
L 69.403026 1221.250409 
L 76.220921 1216.768293 
L 75.919174 1218.48956 
L 93.330104 1213.291902 
L 93.777213 1214.789614 
" clip-path="url(#p9ceeb9a9c1)" style="fill: #c83836"/>
    <path d="M 165.172352 1203.549667 
L 152.396835 1217.346084 
L 154.074667 1217.834641 
L 147.044507 1221.975886 
L 150.634139 1214.648704 
L 151.249992 1216.284104 
L 164.025509 1202.487688 
L 165.172352 1203.549667 
" clip-path="url(#p9ceeb9a9c1)" style="fill: #c0282f"/>
    <path d="M 127.573035 1197.918905 
L 112.89853 1208.628879 
L 114.451239 1209.430692 
L 106.756406 1212.144101 
L 111.686913 1205.643089 
L 111.977088 1207.366344 
L 126.651593 1196.656371 
L 127.573035 1197.918905 
" clip-path="url(#p9ceeb9a9c1)" style="fill: #c83836"/>
    <path d="M 93.908969 1170.369658 
L 79.694554 1177.659658 
L 81.103224 1178.693804 
L 73.079383 1180.174014 
L 78.963392 1174.521449 
L 78.981277 1176.268873 
L 93.195691 1168.978873 
L 93.908969 1170.369658 
" clip-path="url(#p9ceeb9a9c1)" style="fill: #e16751"/>
    <path d="M 113.626838 1238.505693 
L 96.150701 1245.431316 
L 97.453086 1246.596478 
L 89.323902 1247.296067 
L 95.725557 1242.237227 
L 95.574858 1243.978232 
L 113.050995 1237.052609 
L 113.626838 1238.505693 
" clip-path="url(#p9ceeb9a9c1)" style="fill: #c0282f"/>
    <path d="M 163.303336 1183.210769 
L 152.250621 1198.095323 
L 153.971422 1198.399711 
L 147.429937 1203.276393 
L 150.206765 1195.604217 
L 150.995735 1197.163492 
L 162.04845 1182.278938 
L 163.303336 1183.210769 
" clip-path="url(#p9ceeb9a9c1)" style="fill: #c43032"/>
    <path d="M 122.045023 1216.612668 
L 105.86378 1225.569159 
L 107.304472 1226.558207 
L 99.331494 1228.291605 
L 105.033669 1222.455661 
L 105.106846 1224.201643 
L 121.288089 1215.245152 
L 122.045023 1216.612668 
" clip-path="url(#p9ceeb9a9c1)" style="fill: #c43032"/>
   </g>
  </g>
  <g id="axes_32">
   <g id="Quiver_22">
    <path d="M 184.977933 1179.669397 
L 194.359117 1169.235857 
L 192.674304 1168.771945 
L 199.643005 1164.528097 
L 196.161162 1171.907109 
L 195.521403 1170.280911 
L 186.140219 1180.714451 
L 184.977933 1179.669397 
" clip-path="url(#p2d096abc63)" style="fill: #ba162b"/>
    <path d="M 194.969437 1229.12304 
L 200.641341 1216.840458 
L 198.894668 1216.894687 
L 204.299644 1210.782463 
L 203.151759 1218.860545 
L 202.060372 1217.495744 
L 196.388467 1229.778326 
L 194.969437 1229.12304 
" clip-path="url(#p2d096abc63)" style="fill: #c32e31"/>
    <path d="M 215.807366 1173.752269 
L 226.991953 1165.578194 
L 225.438722 1164.777392 
L 233.131787 1162.058973 
L 228.205514 1168.563194 
L 227.914217 1166.840128 
L 216.72963 1175.014203 
L 215.807366 1173.752269 
" clip-path="url(#p2d096abc63)" style="fill: #be242e"/>
    <path d="M 221.05074 1203.176538 
L 230.66856 1193.870271 
L 229.020043 1193.290443 
L 236.266713 1189.540932 
L 232.280691 1196.66025 
L 231.755443 1194.99354 
L 222.137623 1204.299807 
L 221.05074 1203.176538 
" clip-path="url(#p2d096abc63)" style="fill: #c53334"/>
    <path d="M 205.156273 1187.264931 
L 215.049223 1177.63417 
L 213.398954 1177.059345 
L 220.634217 1173.287871 
L 216.669809 1180.419246 
L 216.139508 1178.754137 
L 206.246558 1188.384899 
L 205.156273 1187.264931 
" clip-path="url(#p2d096abc63)" style="fill: #be242e"/>
    <path d="M 178.923051 1179.63465 
L 188.03157 1168.910135 
L 186.334329 1168.493982 
L 193.18042 1164.055053 
L 189.908323 1171.529438 
L 189.222901 1169.921954 
L 180.114382 1180.646468 
L 178.923051 1179.63465 
" clip-path="url(#p2d096abc63)" style="fill: #ba162b"/>
    <path d="M 187.339486 1179.402449 
L 196.846136 1169.102733 
L 195.167515 1168.616891 
L 202.190964 1164.464275 
L 198.613194 1171.797256 
L 197.994696 1170.162855 
L 188.488046 1180.462571 
L 187.339486 1179.402449 
" clip-path="url(#p2d096abc63)" style="fill: #bb1b2c"/>
    <path d="M 250.298495 1169.430448 
L 263.141601 1164.765255 
L 261.873404 1163.562972 
L 270.019398 1163.098406 
L 263.474339 1167.970289 
L 263.675246 1166.234361 
L 250.83214 1170.899553 
L 250.298495 1169.430448 
" clip-path="url(#p2d096abc63)" style="fill: #c12b30"/>
    <path d="M 230.591336 1184.759982 
L 241.952869 1177.335725 
L 240.443643 1176.45479 
L 248.268346 1174.142415 
L 243.008663 1180.380106 
L 242.807876 1178.644164 
L 231.446343 1186.068421 
L 230.591336 1184.759982 
" clip-path="url(#p2d096abc63)" style="fill: #c32e31"/>
    <path d="M 197.966154 1237.004956 
L 202.824952 1224.521216 
L 201.084904 1224.682591 
L 206.104382 1218.250026 
L 205.45467 1226.383348 
L 204.281541 1225.088135 
L 199.422743 1237.571875 
L 197.966154 1237.004956 
" clip-path="url(#p2d096abc63)" style="fill: #c53334"/>
   </g>
  </g>
 </g>
 <defs>
  <clipPath id="pbc477b2af2">
   <rect x="90" y="323.013307" width="78.151261" height="59.722455"/>
  </clipPath>
  <clipPath id="p421e14b85d">
   <rect x="175.966387" y="307.452252" width="78.151261" height="90.844564"/>
  </clipPath>
  <clipPath id="p93385e4114">
   <rect x="286.941176" y="303.154311" width="78.151261" height="99.440446"/>
  </clipPath>
  <clipPath id="pf7af5fdde4">
   <rect x="372.907563" y="299.33424" width="78.151261" height="107.080589"/>
  </clipPath>
  <clipPath id="pbc0dbd3b85">
   <rect x="483.882353" y="321.405254" width="78.151261" height="62.938561"/>
  </clipPath>
  <clipPath id="p84e4731336">
   <rect x="569.848739" y="307.201622" width="78.151261" height="91.345825"/>
  </clipPath>
  <clipPath id="p4dcd1329f7">
   <rect x="96.328055" y="580.218634" width="65.49515" height="112.546584"/>
  </clipPath>
  <clipPath id="p5a1c518743">
   <rect x="175.966387" y="582.962167" width="78.151261" height="107.059517"/>
  </clipPath>
  <clipPath id="pda573e72fb">
   <rect x="286.941176" y="591.027728" width="78.151261" height="90.928394"/>
  </clipPath>
  <clipPath id="p3f802a3437">
   <rect x="372.907563" y="590.824736" width="78.151261" height="91.33438"/>
  </clipPath>
  <clipPath id="p41a0b28519">
   <rect x="486.926704" y="580.218634" width="72.062558" height="112.546584"/>
  </clipPath>
  <clipPath id="p4ff11d7a25">
   <rect x="578.323188" y="580.218634" width="61.202364" height="112.546584"/>
  </clipPath>
  <clipPath id="p143e9cdf5d">
   <rect x="90" y="874.109571" width="78.151261" height="91.999492"/>
  </clipPath>
  <clipPath id="peda81c717e">
   <rect x="175.966387" y="879.884465" width="78.151261" height="80.449703"/>
  </clipPath>
  <clipPath id="pc9879a813c">
   <rect x="286.941176" y="907.375248" width="78.151261" height="25.468138"/>
  </clipPath>
  <clipPath id="pc63ed14675">
   <rect x="372.907563" y="878.22648" width="78.151261" height="83.765673"/>
  </clipPath>
  <clipPath id="pc5ea2c2d78">
   <rect x="483.882353" y="755.338217" width="78.151261" height="81.939714"/>
  </clipPath>
  <clipPath id="p52a3df7b46">
   <rect x="569.848739" y="754.979733" width="78.151261" height="82.656682"/>
  </clipPath>
  <clipPath id="p83b52e33be">
   <rect x="483.882353" y="888.499581" width="78.151261" height="63.219472"/>
  </clipPath>
  <clipPath id="p45b301757d">
   <rect x="569.848739" y="907.368815" width="78.151261" height="25.481003"/>
  </clipPath>
  <clipPath id="p9ceeb9a9c1">
   <rect x="90" y="1166.269021" width="78.151261" height="74.915374"/>
  </clipPath>
  <clipPath id="p2d096abc63">
   <rect x="175.966387" y="1166.80883" width="78.151261" height="73.835756"/>
  </clipPath>
 </defs>
</svg>
